<svg width="15" height="15" viewBox="0 0 15 15" fill="none" xmlns="http://www.w3.org/2000/svg">
<g id="instagram 2" clip-path="url(#clip0_50_1171)">
<path id="Vector" d="M10.625 1.25H4.375C2.64911 1.25 1.25 2.64911 1.25 4.375V10.625C1.25 12.3509 2.64911 13.75 4.375 13.75H10.625C12.3509 13.75 13.75 12.3509 13.75 10.625V4.375C13.75 2.64911 12.3509 1.25 10.625 1.25Z" stroke="#A7A7A7" stroke-width="1.25" stroke-linecap="round" stroke-linejoin="round"/>
<path id="Vector_2" d="M10.0003 7.10625C10.0774 7.6264 9.98859 8.15763 9.7464 8.62438C9.50422 9.09113 9.12102 9.46963 8.65132 9.70604C8.18162 9.94246 7.64934 10.0247 7.13017 9.94121C6.61101 9.85767 6.13141 9.61255 5.75958 9.24072C5.38775 8.8689 5.14264 8.38929 5.0591 7.87013C4.97556 7.35097 5.05785 6.81868 5.29426 6.34898C5.53067 5.87928 5.90917 5.49609 6.37592 5.2539C6.84267 5.01171 7.3739 4.92287 7.89406 5C8.42463 5.07868 8.91584 5.32591 9.29511 5.70519C9.67439 6.08447 9.92163 6.57567 10.0003 7.10625Z" stroke="#A7A7A7" stroke-width="1.25" stroke-linecap="round" stroke-linejoin="round"/>
<path id="Vector_3" d="M10.9375 4.0625H10.9438" stroke="#A7A7A7" stroke-width="1.25" stroke-linecap="round" stroke-linejoin="round"/>
</g>
<defs>
<clipPath id="clip0_50_1171">
<rect width="15" height="15" fill="white"/>
</clipPath>
</defs>
</svg>
