<svg width="14" height="15" viewBox="0 0 14 15" fill="none" xmlns="http://www.w3.org/2000/svg">
<path d="M4.36328 11.2042L6.17161 12.6042C6.40495 12.8375 6.92995 12.9542 7.27995 12.9542H9.49662C10.1966 12.9542 10.9549 12.4292 11.1299 11.7292L12.5299 7.47084C12.8216 6.65417 12.2966 5.95417 11.4216 5.95417H9.08828C8.73828 5.95417 8.44661 5.66251 8.50495 5.25417L8.79661 3.38751C8.91328 2.86251 8.56328 2.27917 8.03828 2.10417C7.57161 1.92917 6.98828 2.16251 6.75495 2.51251L4.36328 6.07084" stroke="#E5E5E5" stroke-miterlimit="10"/>
<path d="M1.38867 11.2042V5.4875C1.38867 4.67083 1.73867 4.37917 2.55534 4.37917H3.13867C3.95534 4.37917 4.30534 4.67083 4.30534 5.4875V11.2042C4.30534 12.0208 3.95534 12.3125 3.13867 12.3125H2.55534C1.73867 12.3125 1.38867 12.0208 1.38867 11.2042Z" stroke="#E5E5E5" stroke-linecap="round" stroke-linejoin="round"/>
</svg>
